<svg xmlns="http://www.w3.org/2000/svg" width="11.253" height="11.252" viewBox="0 0 11.253 11.252">
  <path id="Path_8601" data-name="Path 8601" d="M108.426,114.049a5.627,5.627,0,1,0,5.627-5.627A5.622,5.622,0,0,0,108.426,114.049Zm3.309-.624a.4.4,0,0,1,.245-.344v.7A.388.388,0,0,1,111.735,113.425Zm.214-.935v-.411a2.081,2.081,0,0,1,4.162,0v.4l-.032-.006a.532.532,0,0,0-.183-.325c-.091-.1-.214-.229-.49-.526a.446.446,0,0,0-.572-.07,3.924,3.924,0,0,1-2.373.639.449.449,0,0,0-.451.286Zm4.131.574a.388.388,0,0,1,0,.722Zm-3.528.988V112.77a4.523,4.523,0,0,0,2.5-.682c.249.267.388.413.451.485v1.48a1.478,1.478,0,0,1-2.956,0Zm1.5,2.025a2.051,2.051,0,0,0,.7-.124v.2a.525.525,0,0,0,.281.462,1.382,1.382,0,0,1-2,.013.538.538,0,0,0,.31-.484v-.18A2.238,2.238,0,0,0,114.056,116.077Zm-1.593.776.13.139a1.956,1.956,0,0,0,2.874,0l.142-.151,1.939.751h0c.008,0,.033.015.07.036a5.046,5.046,0,0,1-7.132,0c.035-.019.059-.03.067-.034h0Zm5.544.341a1.647,1.647,0,0,0-.241-.131l-.006,0-2.434-.942v-.491a2.025,2.025,0,0,0,.727-1.247.961.961,0,0,0,.63-1.559v-.741a2.653,2.653,0,1,0-5.305,0v.76a.909.909,0,0,0-.214.585.963.963,0,0,0,.845.955,2.05,2.05,0,0,0,.768,1.28v.458l-.34.132-2.09.81-.006,0a1.624,1.624,0,0,0-.241.131,5.053,5.053,0,1,1,7.908,0Zm0,0" transform="translate(-108.426 -108.422)" fill="#ed9728"/>
</svg>
